<svg width="20" height="20" viewBox="0 0 20 20" fill="none" xmlns="http://www.w3.org/2000/svg">
<g id="bxs:edit">
<rect width="20" height="20" fill="#87BCC8" fill-opacity="0.18"/>
<path id="Vector" d="M17.1567 0L19.6567 2.5L17.7508 4.40667L15.2508 1.90667L17.1567 0ZM8 11.6567H10.5L16.5725 5.58417L14.0725 3.08417L8 9.15667V11.6567Z" fill="black" fill-opacity="0.36"/>
<path id="Vector_2" d="M15.3333 16.3333H6.29833C6.27667 16.3333 6.25417 16.3417 6.2325 16.3417C6.205 16.3417 6.1775 16.3342 6.14917 16.3333H3.66667V4.66667H9.3725L11.0392 3H3.66667C2.7475 3 2 3.74667 2 4.66667V16.3333C2 17.2533 2.7475 18 3.66667 18H15.3333C15.7754 18 16.1993 17.8244 16.5118 17.5118C16.8244 17.1993 17 16.7754 17 16.3333V9.11L15.3333 10.7767V16.3333Z" fill="black" fill-opacity="0.36"/>
</g>
</svg>
